<svg xmlns="http://www.w3.org/2000/svg" width="164.33" height="115.81" viewBox="0 0 164.33 115.81"><title>Artboard 1logo</title><path d="M164.33,29.44h0a29.47,29.47,0,0,1-29.45,29.45H83.36V0h51.43A29.49,29.49,0,0,1,164.33,29.44Z"/><path d="M93.66,54.94l51,60.35" fill="none" stroke="#000" stroke-linecap="round" stroke-linejoin="round" stroke-width="0.89"/><path d="M107.08,55l49.7,60.35" fill="none" stroke="#000" stroke-linecap="round" stroke-linejoin="round" stroke-width="0.46"/><path d="M83.34,56.92v58.89H133Z"/><polygon points="-0.15 0 61.45 0 1.23 58.89 -0.15 58.89 -0.15 0"/><polygon points="-0.17 115.81 -0.15 58.89 1.5 58.89 49.76 115.81 -0.17 115.81"/><path d="M8.24,52.64l53.21,62.65" fill="none" stroke="#000" stroke-linecap="round" stroke-linejoin="round" stroke-width="0.89"/><path d="M15,44.52,73.6,115.3" fill="none" stroke="#000" stroke-linecap="round" stroke-linejoin="round" stroke-width="0.46"/></svg>